<mxfile host="app.diagrams.net" agent="Mozilla/5.0 (X11; Linux x86_64) AppleWebKit/537.36 (KHTML, like Gecko) Chrome/139.0.0.0 Safari/537.36" version="28.1.1">
  <diagram name="Página-1" id="hZpGxx9lhmGYSOvhP72v">
    <mxGraphModel dx="1426" dy="831" grid="1" gridSize="10" guides="1" tooltips="1" connect="1" arrows="1" fold="1" page="1" pageScale="1" pageWidth="827" pageHeight="1169" math="0" shadow="0">
      <root>
        <mxCell id="0" />
        <mxCell id="1" parent="0" />
        <mxCell id="gm9W1PT_e_gTqH0XRgua-3" value="«Base de Datos»&lt;br&gt;&lt;b&gt;TallerDB&lt;/b&gt;" style="html=1;dropTarget=0;whiteSpace=wrap;labelPosition=center;verticalLabelPosition=middle;align=center;verticalAlign=top;labelBackgroundColor=none;labelBorderColor=none;fillColor=#f5f5f5;gradientColor=#b3b3b3;strokeColor=#666666;" vertex="1" parent="1">
          <mxGeometry x="840" y="180" width="180" height="90" as="geometry" />
        </mxCell>
        <mxCell id="gm9W1PT_e_gTqH0XRgua-4" value="" style="shape=module;jettyWidth=8;jettyHeight=4;" vertex="1" parent="gm9W1PT_e_gTqH0XRgua-3">
          <mxGeometry x="1" width="20" height="20" relative="1" as="geometry">
            <mxPoint x="-27" y="7" as="offset" />
          </mxGeometry>
        </mxCell>
        <mxCell id="gm9W1PT_e_gTqH0XRgua-5" value="«Interface»&lt;br&gt;&lt;b&gt;API REST&lt;/b&gt;" style="html=1;dropTarget=0;whiteSpace=wrap;labelPosition=center;verticalLabelPosition=middle;align=center;verticalAlign=top;labelBackgroundColor=none;labelBorderColor=none;fillColor=#dae8fc;gradientColor=#7ea6e0;strokeColor=#6c8ebf;" vertex="1" parent="1">
          <mxGeometry x="360" y="160" width="120" height="130" as="geometry" />
        </mxCell>
        <mxCell id="gm9W1PT_e_gTqH0XRgua-6" value="" style="shape=module;jettyWidth=8;jettyHeight=4;" vertex="1" parent="gm9W1PT_e_gTqH0XRgua-5">
          <mxGeometry x="1" width="20" height="20" relative="1" as="geometry">
            <mxPoint x="-27" y="7" as="offset" />
          </mxGeometry>
        </mxCell>
        <mxCell id="gm9W1PT_e_gTqH0XRgua-13" style="rounded=0;orthogonalLoop=1;jettySize=auto;html=1;entryX=1;entryY=0.5;entryDx=0;entryDy=0;startSize=10;endSize=10;endArrow=block;endFill=0;dashed=1;dashPattern=8 8;" edge="1" parent="1" source="gm9W1PT_e_gTqH0XRgua-9" target="gm9W1PT_e_gTqH0XRgua-5">
          <mxGeometry relative="1" as="geometry" />
        </mxCell>
        <mxCell id="gm9W1PT_e_gTqH0XRgua-9" value="«Web Services»&lt;br&gt;&lt;b&gt;MyAppServices&lt;/b&gt;" style="html=1;dropTarget=0;whiteSpace=wrap;labelPosition=center;verticalLabelPosition=middle;align=center;verticalAlign=top;labelBackgroundColor=none;labelBorderColor=none;fillColor=#fff2cc;strokeColor=#d6b656;gradientColor=#ffd966;" vertex="1" parent="1">
          <mxGeometry x="590" y="180" width="180" height="90" as="geometry" />
        </mxCell>
        <mxCell id="gm9W1PT_e_gTqH0XRgua-10" value="" style="shape=module;jettyWidth=8;jettyHeight=4;" vertex="1" parent="gm9W1PT_e_gTqH0XRgua-9">
          <mxGeometry x="1" width="20" height="20" relative="1" as="geometry">
            <mxPoint x="-27" y="7" as="offset" />
          </mxGeometry>
        </mxCell>
        <mxCell id="gm9W1PT_e_gTqH0XRgua-11" value="«AplicacionWeb»&lt;br&gt;&lt;b&gt;TallerApp&lt;/b&gt;" style="html=1;dropTarget=0;whiteSpace=wrap;labelPosition=center;verticalLabelPosition=middle;align=center;verticalAlign=top;labelBackgroundColor=none;labelBorderColor=none;fillColor=#fff2cc;gradientColor=#ffd966;strokeColor=#d6b656;" vertex="1" parent="1">
          <mxGeometry x="90" y="180" width="180" height="90" as="geometry" />
        </mxCell>
        <mxCell id="gm9W1PT_e_gTqH0XRgua-12" value="" style="shape=module;jettyWidth=8;jettyHeight=4;" vertex="1" parent="gm9W1PT_e_gTqH0XRgua-11">
          <mxGeometry x="1" width="20" height="20" relative="1" as="geometry">
            <mxPoint x="-27" y="7" as="offset" />
          </mxGeometry>
        </mxCell>
        <mxCell id="gm9W1PT_e_gTqH0XRgua-8" style="rounded=0;orthogonalLoop=1;jettySize=auto;html=1;entryX=1;entryY=0.5;entryDx=0;entryDy=0;startArrow=open;startFill=0;dashed=1;dashPattern=8 8;endArrow=open;endFill=0;startSize=10;endSize=10;" edge="1" parent="1" source="gm9W1PT_e_gTqH0XRgua-3" target="gm9W1PT_e_gTqH0XRgua-9">
          <mxGeometry relative="1" as="geometry" />
        </mxCell>
        <mxCell id="gm9W1PT_e_gTqH0XRgua-18" style="rounded=0;orthogonalLoop=1;jettySize=auto;html=1;startArrow=none;startFill=0;dashed=1;dashPattern=8 8;endArrow=open;endFill=0;exitX=1;exitY=0.5;exitDx=0;exitDy=0;startSize=10;endSize=10;" edge="1" parent="1" source="gm9W1PT_e_gTqH0XRgua-11" target="gm9W1PT_e_gTqH0XRgua-5">
          <mxGeometry relative="1" as="geometry">
            <mxPoint x="660" y="374" as="sourcePoint" />
            <mxPoint x="740" y="350" as="targetPoint" />
          </mxGeometry>
        </mxCell>
      </root>
    </mxGraphModel>
  </diagram>
</mxfile>
